<?xml version="1.0" encoding="utf-8"?>
<!-- Generator: Adobe Illustrator 18.0.0, SVG Export Plug-In . SVG Version: 6.00 Build 0)  -->
<!DOCTYPE svg PUBLIC "-//W3C//DTD SVG 1.1//EN" "http://www.w3.org/Graphics/SVG/1.1/DTD/svg11.dtd">
<svg version="1.1" id="Layer_1" xmlns="http://www.w3.org/2000/svg" xmlns:xlink="http://www.w3.org/1999/xlink" x="0px" y="0px"
	 viewBox="0 0 562.2 285" enable-background="new 0 0 562.2 285" xml:space="preserve">
<g>
	<g>
		<path fill="#F6921E" d="M233.4,81.1v19.8c0,15.1-7.5,22.5-22.5,22.5h-8.1c-15.1,0-22.4-7.5-22.4-22.4V75.4h18v25
			c0,4.7,2.3,6.9,7.1,6.9h2.4c4.9,0,7.1-2.3,7.1-6.9V83.7c0-5-1.7-7.3-5.2-9.9l-18.7-13.7c-8.3-5.9-10.7-11.6-10.7-21V22.5
			c0-15.1,7.5-22.5,22.5-22.5h7.8C225.6,0,233,7.5,233,22.4v22h-18.2V23.1c0-4.7-2.3-6.9-6.9-6.9h-2.3c-4.7,0-6.9,2.3-6.9,6.9v13.5
			c0,5,1.7,7.5,5.2,9.9l18.7,13.7C230.8,66,233.4,71.2,233.4,81.1z"/>
		<path fill="#F6921E" d="M292.8,122.4h-17.3v-6.2c-4.3,4-9.4,7.3-16.6,7.3h-0.7c-10.2,0-15.4-5.7-15.4-16.3V27.2h17.5v74.7
			c0,3.8,1.9,5.5,5.7,5.5c3.3,0,6.2-1,9.4-2.9V27.2h17.5V122.4z"/>
		<path fill="#F6921E" d="M302.8,27.2h17.3v10.2c4-7.6,7.8-11.1,14.7-11.1v19.4c-6.4,0.5-10.9,2.3-14.6,5.5v71.1h-17.5V27.2z"/>
		<path fill="#F6921E" d="M353.6,122.4l-15.9-95.1h17.7l9.4,67.6l9.4-67.6h16.6l-15.8,95.1H353.6z"/>
		<path fill="#F6921E" d="M397.8,2.3H416v17h-18.2V2.3z M398.1,27.2h17.5v95.1h-17.5V27.2z"/>
		<path fill="#F6921E" d="M439,122.4l-15.9-95.1h17.7l9.4,67.6l9.4-67.6h16.6l-15.8,95.1H439z"/>
		<path fill="#F6921E" d="M498.8,81.6v19.8c0,4.3,2.1,6.4,6.2,6.4h2.3c4.3,0,6.4-2.1,6.4-6.4V91.3h16.8v10.9
			c0,14-7.1,21.1-21.1,21.1h-6.8c-14,0-21.1-7.1-21.1-21.1V47.3c0-14,7.1-21.1,21.1-21.1h6.8c14,0,21.1,7.1,21.1,21.1v34.3H498.8z
			 M498.8,66.7h14.6V48c0-4.3-2.1-6.4-6.4-6.4h-1.9c-4.2,0-6.2,2.1-6.2,6.4V66.7z"/>
		<path fill="#F6921E" d="M220.4,230.1l11.8-85.4h27.6v121.3h-18.2v-91l-13.3,91h-18l-13.3-91.3v91.3h-15.9V144.6h27.7L220.4,230.1z
			"/>
		<path fill="#F6921E" d="M287.6,267c-14,0-21.1-7.1-21.1-21.1v-54.9c0-14,7.1-21.1,21.1-21.1h8.1c14,0,21.1,7.1,21.1,21.1v54.9
			c0,14-7.1,21.1-21.1,21.1H287.6z M290.2,185.5c-4.2,0-6.2,2.1-6.2,6.4v52.9c0,4.3,2.1,6.4,6.2,6.4h2.8c4.3,0,6.4-2.1,6.4-6.4
			v-52.9c0-4.3-2.1-6.4-6.4-6.4H290.2z"/>
		<path fill="#F6921E" d="M326.4,170.8h17.3v6.2c4.5-4,9.4-7.3,16.6-7.3h0.9c10.1,0,15.3,5.7,15.3,16.3v79.9H359v-74.7
			c0-3.8-1.7-5.5-5.7-5.5c-3.3,0-6.1,1-9.4,2.9v77.3h-17.5V170.8z"/>
		<path fill="#F6921E" d="M407.5,265.9H390V186h-6.2v-15.3h6.2v-15.6h17.5v15.6h9.2V186h-9.2V265.9z"/>
		<path fill="#F6921E" d="M423.6,142.9h17.5V177c4.3-4,9.2-7.3,16.5-7.3h0.9c10.1,0,15.3,5.7,15.3,16.3v79.9h-17.5v-74.7
			c0-3.8-1.7-5.5-5.7-5.5c-3.3,0-6.1,1-9.4,2.9v77.3h-17.5V142.9z"/>
		<path fill="#F6921E" d="M483.9,142.9h17.5v123h-17.5V142.9z"/>
		<path fill="#F6921E" d="M521.5,285l5-22.7l-18-91.5H526l9.2,57.9l10.2-57.9h16.8L538.3,285H521.5z"/>
	</g>
	<path fill="#F6921E" d="M140.2,3.2V16L64.6,38.5v19L0,76.7v85.6l80.6-19v-19l59.7-17.7v159h17.5V3.2H140.2z M56.2,129.8l-13.5-10.7
		l-9.6,15l-9.5-7.6l9.6-15l-13.5-10.7l6.8-10.6L40,100.9l9.6-15l9.5,7.6l-9.6,15L63,119.2L56.2,129.8z M120.8,91.6l-13.5-10.7
		l-9.6,15l-9.5-7.6l9.6-15L84.3,62.6L91.1,52l13.5,10.7l9.6-15l9.5,7.6l-9.6,15L127.6,81L120.8,91.6z"/>
</g>
</svg>
