<?xml version="1.0" encoding="utf-8"?>
<!-- Generator: Adobe Illustrator 18.0.0, SVG Export Plug-In . SVG Version: 6.00 Build 0)  -->
<!DOCTYPE svg PUBLIC "-//W3C//DTD SVG 1.1//EN" "http://www.w3.org/Graphics/SVG/1.1/DTD/svg11.dtd">
<svg version="1.1" id="Layer_1" xmlns="http://www.w3.org/2000/svg" xmlns:xlink="http://www.w3.org/1999/xlink" x="0px" y="0px"
	 viewBox="147.8 155.2 664.7 404.8" enable-background="new 147.8 155.2 664.7 404.8" xml:space="preserve">
<path fill="#F6921E" d="M754.1,343.5l24.3-24.3l-68.1-125.5l16.3-16.3l-22.3-22.3L479.9,379.6L255.4,155.2l-22.3,22.3l16.3,16.3
	l-68.1,125.5l24.3,24.3l-57.9,107.1L257.2,560l78.7-127.2l-24.3-24.3l53.7-99l92.5,92.5l-88.3,88.3l22.3,22.3l88.3-88.3l88.3,88.3
	l22.3-22.3l-88.3-88.3l92.5-92.5l53.7,99l-24.3,24.3L703.1,560l109.4-109.4L754.1,343.5z M263.3,481.6l-21.8,2.5l-6.9-31.4
	l-30.9,3.5l-4.9-22.3l30.9-3.5l-6.9-31.4l21.8-2.5l6.9,31.4l30.9-3.5l4.9,22.3l-30.9,3.5L263.3,481.6z M290.3,319l6.9,31.4
	l-21.8,2.5l-6.9-31.4l-30.9,3.5l-4.9-22.3l30.9-3.5l-6.9-31.4l21.8-2.5l6.9,31.4l30.9-3.5l4.9,22.3L290.3,319z M638.7,315.3
	l4.9-22.3l30.9,3.5l6.9-31.4l21.8,2.5l-6.9,31.4l30.9,3.5l-4.9,22.3l-30.9-3.5l-6.9,31.4l-21.8-2.5l6.9-31.4L638.7,315.3z
	 M725.1,452.6l-6.9,31.4l-21.8-2.5l6.9-31.4l-30.9-3.5l4.9-22.3l30.9,3.5l6.9-31.4l21.8,2.5l-6.9,31.4l30.9,3.5l-4.9,22.3
	L725.1,452.6z"/>
</svg>
